<svg width="32" height="33" viewBox="0 0 32 33" fill="none" xmlns="http://www.w3.org/2000/svg">
<path d="M8.77667 10.3855C12.7861 11.0924 15.1757 12.5709 16 13.4198C16.8243 12.5709 19.2139 11.0924 23.2233 10.3855C25.2545 10.0274 26.2701 9.84838 27.1351 10.5346C28 11.2209 28 12.3353 28 14.5641V22.5738C28 24.6118 28 25.6308 27.4449 26.2669C26.8897 26.903 25.6676 27.1185 23.2233 27.5494C21.0444 27.9336 19.3439 28.5456 18.1129 29.1606C16.902 29.7658 16.2964 30.0684 16 30.0684C15.7036 30.0684 15.098 29.7658 13.8871 29.1606C12.6561 28.5456 10.9556 27.9336 8.77667 27.5494C6.33239 27.1185 5.11024 26.903 4.55512 26.2669C4 25.6308 4 24.6118 4 22.5738V14.5641C4 12.3353 4 11.2209 4.86493 10.5346C5.72988 9.84838 6.74548 10.0274 8.77667 10.3855Z" stroke="#99E39E" stroke-width="2" stroke-linecap="round" stroke-linejoin="round"/>
<path d="M16 12.7349V30.0682" stroke="#99E39E" stroke-width="2" stroke-linejoin="round"/>
<path d="M11.3334 4.81279C12.6819 3.91866 14.2786 3.40137 15.9902 3.40137C17.71 3.40137 19.314 3.92373 20.6667 4.82591M18.163 8.06803C17.5228 7.6817 16.781 7.46082 15.9902 7.46082C15.2078 7.46082 14.4734 7.67702 13.8379 8.05574" stroke="#99E39E" stroke-width="2" stroke-linecap="round"/>
</svg>
