<svg width="32" height="33" viewBox="0 0 32 33" fill="none" xmlns="http://www.w3.org/2000/svg">
<path d="M27.6985 24.7349C28.6976 24.7349 29.4923 24.1062 30.2057 23.227C31.6664 21.4274 29.2683 19.9893 28.3536 19.285C27.4239 18.569 26.3857 18.1634 25.3332 18.0682M23.9999 15.4015C25.8408 15.4015 27.3332 13.9091 27.3332 12.0682C27.3332 10.2272 25.8408 8.73486 23.9999 8.73486" stroke="#99E39E" stroke-width="2" stroke-linecap="round"/>
<path d="M4.30108 24.7349C3.302 24.7349 2.50736 24.1062 1.79385 23.227C0.333251 21.4274 2.73136 19.9893 3.64599 19.285C4.57576 18.569 5.61391 18.1634 6.66647 18.0682M7.33313 15.4015C5.49219 15.4015 3.9998 13.9091 3.9998 12.0682C3.9998 10.2272 5.49219 8.73486 7.33313 8.73486" stroke="#99E39E" stroke-width="2" stroke-linecap="round"/>
<path d="M10.7782 20.883C9.41583 21.7254 5.84377 23.4455 8.0194 25.5979C9.08217 26.6494 10.2658 27.4014 11.754 27.4014H20.2457C21.7338 27.4014 22.9174 26.6494 23.9802 25.5979C26.1558 23.4455 22.5838 21.7254 21.2214 20.883C18.0266 18.9075 13.9729 18.9075 10.7782 20.883Z" stroke="#99E39E" stroke-width="2" stroke-linecap="round" stroke-linejoin="round"/>
<path d="M20.6665 10.735C20.6665 13.3124 18.5772 15.4017 15.9998 15.4017C13.4225 15.4017 11.3331 13.3124 11.3331 10.735C11.3331 8.15769 13.4225 6.06836 15.9998 6.06836C18.5772 6.06836 20.6665 8.15769 20.6665 10.735Z" stroke="#99E39E" stroke-width="2"/>
</svg>
