<svg width="20" height="21" viewBox="0 0 20 21" fill="none" xmlns="http://www.w3.org/2000/svg">
<path d="M11.25 4.48486C11.25 3.7945 10.6903 3.23486 10 3.23486C9.30967 3.23486 8.75 3.7945 8.75 4.48486C8.75 5.17522 9.30967 5.73486 10 5.73486C10.6903 5.73486 11.25 5.17522 11.25 4.48486Z" fill="white" stroke="white" stroke-width="0.833333"/>
<path d="M11.25 10.7349C11.25 10.0445 10.6903 9.48486 10 9.48486C9.30967 9.48486 8.75 10.0445 8.75 10.7349C8.75 11.4252 9.30967 11.9849 10 11.9849C10.6903 11.9849 11.25 11.4252 11.25 10.7349Z" fill="white" stroke="white" stroke-width="0.833333"/>
<path d="M11.25 16.9849C11.25 16.2945 10.6903 15.7349 10 15.7349C9.30967 15.7349 8.75 16.2945 8.75 16.9849C8.75 17.6752 9.30967 18.2349 10 18.2349C10.6903 18.2349 11.25 17.6752 11.25 16.9849Z" fill="white" stroke="white" stroke-width="0.833333"/>
</svg>
