<svg width="1204" height="196" viewBox="0 0 1204 196" fill="none" xmlns="http://www.w3.org/2000/svg">
<path d="M19.2641 61.5173H6.70302H-7V195.946H1208V74.6078L1128.64 34.8328L1082.96 41.3782L1053.27 34.8328L1020.73 41.3782L979.5 8.58871L925.948 41.3782L850.009 49.4338L812.897 34.8328L759.798 45.9094H726.11L672.441 29.7981L641 26.0277L622.768 11.1694L603.355 0.0927734L554.823 34.8328H531.985L513.144 42.3851H485.737L456.048 54.4686L410.371 49.4338L371.546 57.4895L280.193 42.3851L225.5 10.8245L195.12 38.8607L132.314 54.4686H90.0626L36.9638 64.0347L19.2641 61.5173Z" fill="url(#paint0_linear_1_951)"/>
<defs>
<linearGradient id="paint0_linear_1_951" x1="600.5" y1="-877.607" x2="600.5" y2="168.834" gradientUnits="userSpaceOnUse">
<stop stop-color="#99E39E"/>
<stop offset="1" stop-color="#99E39E" stop-opacity="0"/>
</linearGradient>
</defs>
</svg>
