<svg width="1204" height="199" viewBox="0 0 1204 199" fill="none" xmlns="http://www.w3.org/2000/svg">
<path d="M18.2857 64.0386H5.7143H-8V202H1208V77.473L1128.57 36.6529L1082.86 43.3702L1053.14 36.6529L1020.57 43.3702L977.5 10.1781L925.716 43.3702L849.715 51.6375L812.572 36.6529L759.429 48.0205H725.714L672 31.4859L641 27.1575L622.286 12.3676L602.858 1L554.285 36.6529H531.429L512.572 44.4036H485.143L455.429 56.8047L409.714 51.6375L370.857 59.9049L279.429 44.4036L224.5 11.0959L194.286 40.7866L131.428 56.8047H89.1424L36 66.6221L18.2857 64.0386Z" stroke="#99E39E" stroke-width="1.5"/>
</svg>
