<svg width="113" height="93" viewBox="0 0 113 93" fill="none" xmlns="http://www.w3.org/2000/svg">
<path d="M22.1035 90.7245C19.3897 93.4383 14.9496 93.4614 12.5953 90.4304C7.31591 83.6336 3.66643 75.6766 1.97509 67.1737C-0.169981 56.3897 0.930948 45.2117 5.13866 35.0534C9.34637 24.8951 16.4719 16.2126 25.6141 10.104C34.7564 3.99534 45.5047 0.734863 56.5 0.734863C67.4953 0.734863 78.2437 3.99534 87.3859 10.104C96.5281 16.2126 103.654 24.8951 107.861 35.0534C112.069 45.2117 113.17 56.3897 111.025 67.1737C109.334 75.6766 105.684 83.6336 100.405 90.4304C98.0504 93.4614 93.6103 93.4383 90.8965 90.7245C88.1827 88.0107 88.2394 83.6375 90.4653 80.511C93.8678 75.7322 96.2391 70.2669 97.3937 64.4622C99.0025 56.3742 98.1768 47.9908 95.021 40.3721C91.8652 32.7533 86.5211 26.2415 79.6644 21.66C72.8077 17.0785 64.7465 14.6331 56.5 14.6331C48.2536 14.6331 40.1923 17.0785 33.3356 21.66C26.4789 26.2415 21.1348 32.7533 17.979 40.3721C14.8232 47.9908 13.9975 56.3742 15.6063 64.4622C16.7609 70.2669 19.1323 75.7322 22.5347 80.511C24.7607 83.6375 24.8173 88.0107 22.1035 90.7245Z" fill="white" fill-opacity="0.4"/>
<path d="M22.1035 90.7245C19.3897 93.4383 14.9497 93.4615 12.5954 90.4305C9.2716 86.1514 6.5835 81.3992 4.62603 76.3202C1.83335 69.074 0.589788 61.3231 0.975468 53.567C1.36115 45.8109 3.36752 38.2216 6.86528 31.2882C10.3631 24.3548 15.2746 18.2311 21.2835 13.3118C27.2923 8.39247 34.2652 4.78661 41.7527 2.72658C49.2401 0.666546 57.0762 0.198054 64.7558 1.35129C72.4354 2.50452 79.7882 5.2539 86.3403 9.42225C90.933 12.344 95.0608 15.9174 98.5995 20.0206C101.106 22.927 100.207 27.275 97.0105 29.3996C93.8143 31.5242 89.5383 30.6053 86.9129 27.8059C84.5309 25.2659 81.8337 23.0276 78.8803 21.1487C73.9661 18.0224 68.4515 15.9604 62.6918 15.0955C56.9321 14.2305 51.0551 14.5819 45.4395 16.1269C39.8239 17.672 34.5942 20.3764 30.0876 24.0659C25.581 27.7554 21.8973 32.3481 19.274 37.5481C16.6506 42.7482 15.1459 48.4401 14.8566 54.2572C14.5673 60.0743 15.5 65.8875 17.5945 71.3221C18.8533 74.5884 20.515 77.6744 22.5347 80.5111C24.7607 83.6375 24.8173 88.0107 22.1035 90.7245Z" fill="#99E39E"/>
</svg>
