<svg width="96" height="96" viewBox="0 0 96 96" fill="none" xmlns="http://www.w3.org/2000/svg">
<path d="M50.3185 6.20137C49.7919 6.17286 49.3952 6.00467 49.1282 5.6968C48.8615 5.38407 48.7422 4.96928 48.7702 4.45245L49.5527 4.49483C49.5431 4.76326 49.5991 4.99368 49.7207 5.18609C49.8423 5.3785 50.0518 5.48276 50.3492 5.49886C50.6369 5.51444 50.8466 5.43533 50.9782 5.26153C51.1148 5.08799 51.1903 4.86714 51.2048 4.59897L51.3977 1.03721L52.173 1.0792L51.9801 4.64095C51.9516 5.16754 51.7906 5.56714 51.4971 5.83976C51.2038 6.1075 50.811 6.22804 50.3185 6.20137Z" fill="white"/>
<path d="M54.7525 6.68477C54.3429 6.61786 54.006 6.45398 53.7419 6.19313C53.4777 5.93228 53.298 5.5937 53.2027 5.17738C53.1075 4.76106 53.1039 4.28303 53.1921 3.7433C53.2803 3.20356 53.4358 2.75151 53.6586 2.38715C53.8814 2.02279 54.1595 1.75899 54.4929 1.59576C54.8263 1.43253 55.1978 1.38437 55.6074 1.45129C56.0219 1.51899 56.3588 1.68287 56.6181 1.94293C56.8822 2.20378 57.0619 2.54236 57.1572 2.95868C57.2524 3.37501 57.256 3.85303 57.1678 4.39277C57.0797 4.9325 56.9242 5.38455 56.7014 5.74891C56.4786 6.11328 56.2005 6.37707 55.8671 6.5403C55.5385 6.70432 55.1669 6.75248 54.7525 6.68477ZM54.8706 5.96192C55.232 6.02096 55.5499 5.90715 55.8244 5.62049C56.0996 5.329 56.2872 4.87725 56.3871 4.26523C56.4871 3.65321 56.4526 3.16766 56.2837 2.80857C56.1156 2.44466 55.8508 2.23319 55.4893 2.17415C55.1231 2.11432 54.8024 2.23014 54.5272 2.52162C54.2576 2.80908 54.0728 3.25881 53.9728 3.87083C53.8728 4.48285 53.9045 4.97042 54.0678 5.33354C54.2367 5.69263 54.5043 5.90209 54.8706 5.96192Z" fill="white"/>
<path d="M57.7563 7.17178L57.9405 6.5084L59.0132 6.80629L60.0166 3.19294L58.958 2.89897L59.1423 2.23558L62.0075 3.03126L61.8233 3.69465L60.7647 3.40068L59.7613 7.01403L60.834 7.31192L60.6498 7.97531L57.7563 7.17178Z" fill="white"/>
<path d="M61.8029 8.34581L63.7034 3.584L64.4109 3.86637L65.0112 8.1516L66.404 4.66188L67.0911 4.9361L65.1906 9.69791L64.4831 9.41554L63.8827 5.13031L62.4899 8.62003L61.8029 8.34581Z" fill="white"/>
<path d="M71.4664 13.3579C71.111 13.1164 70.8698 12.8197 70.7429 12.4678C70.6201 12.1187 70.6031 11.7352 70.6922 11.3175C70.788 10.8985 70.9841 10.471 71.2804 10.0348C71.5796 9.59456 71.9049 9.25479 72.2565 9.01547C72.6148 8.77486 72.9809 8.64876 73.3548 8.63717C73.7314 8.62154 74.0954 8.7331 74.4468 8.97187C74.9032 9.28198 75.1816 9.65418 75.282 10.0885C75.3852 10.5187 75.3149 10.9609 75.0712 11.4152L74.3624 10.9335C74.477 10.6867 74.511 10.4412 74.4644 10.197C74.4246 9.95153 74.2795 9.74371 74.0291 9.57356C73.71 9.35675 73.3656 9.32933 72.9958 9.49129C72.626 9.65324 72.2723 9.9826 71.9347 10.4794C71.5999 10.9721 71.4253 11.4202 71.4109 11.8236C71.3992 12.2231 71.5529 12.5312 71.872 12.748C72.1305 12.9236 72.3737 12.9915 72.6015 12.9515C72.8322 12.9075 73.0431 12.7881 73.2345 12.5935L73.9433 13.0751C73.596 13.4472 73.2087 13.6652 72.7816 13.7291C72.3571 13.789 71.9187 13.6653 71.4664 13.3579Z" fill="white"/>
<path d="M73.8651 14.963L77.1871 11.0577L78.4647 12.1444C78.7697 12.4038 78.9764 12.6695 79.085 12.9413C79.1972 13.2163 79.2258 13.4842 79.1706 13.7449C79.1224 14.0052 79.0033 14.2469 78.8135 14.47C78.5983 14.723 78.3419 14.8926 78.044 14.979C77.753 15.0648 77.4375 15.0401 77.0975 14.9047L76.5319 17.2314L75.8457 16.6477L76.4127 14.4664L75.7711 13.9206L74.4565 15.466L73.8651 14.963ZM76.2266 13.3851L76.8794 13.9403C77.1472 14.1681 77.3931 14.2747 77.617 14.2601C77.8447 14.2486 78.0409 14.1462 78.2054 13.9528C78.373 13.7556 78.4446 13.5472 78.4199 13.3275C78.3984 13.1041 78.25 12.8753 77.9748 12.6412L77.3276 12.0907L76.2266 13.3851Z" fill="white"/>
<path d="M78.1473 18.8713L79.5617 17.5314L80.7058 14.117L81.3153 14.7604L80.4242 17.249L82.9574 16.4938L83.5669 17.1372L80.0956 18.095L78.6812 19.4349L78.1473 18.8713Z" fill="white"/>
<path d="M81.12 22.3039L84.6459 19.62L83.8119 18.5243L84.3656 18.1028L86.5039 20.912L85.9502 21.3334L85.1162 20.2377L81.5902 22.9217L81.12 22.3039Z" fill="white"/>
<path d="M83.0389 24.9306L87.4295 22.2831L88.3259 23.7697C88.5276 24.1042 88.6355 24.4155 88.6495 24.7035C88.6677 24.989 88.608 25.2446 88.4703 25.4701C88.3326 25.6957 88.1341 25.8867 87.8749 26.043C87.6156 26.1993 87.3541 26.2857 87.0904 26.3022C86.8266 26.3187 86.5706 26.2535 86.3224 26.1067C86.0784 25.9573 85.8556 25.7153 85.6539 25.3808L85.1584 24.5591L83.4398 25.5954L83.0389 24.9306ZM85.7543 24.1998L86.2308 24.9902C86.4023 25.2745 86.594 25.4412 86.806 25.4901C87.0205 25.5432 87.2406 25.5017 87.4664 25.3656C87.688 25.2319 87.8254 25.0579 87.8785 24.8434C87.9384 24.6305 87.8826 24.3819 87.7111 24.0976L87.2346 23.3073L85.7543 24.1998Z" fill="white"/>
<path d="M85.9577 30.418C85.7832 30.0414 85.7298 29.6706 85.7975 29.3056C85.8651 28.9406 86.0445 28.6018 86.3356 28.2893C86.6268 27.9769 87.0204 27.7056 87.5166 27.4757C88.0128 27.2458 88.4742 27.1208 88.9008 27.1007C89.3274 27.0806 89.7019 27.1627 90.0241 27.3471C90.3463 27.5315 90.5947 27.8119 90.7692 28.1885C90.9457 28.5695 90.9991 28.9403 90.9294 29.3009C90.8618 29.6659 90.6824 30.0047 90.3913 30.3172C90.1002 30.6297 89.7065 30.9009 89.2103 31.1308C88.7141 31.3607 88.2527 31.4857 87.8261 31.5058C87.3995 31.5259 87.025 31.4438 86.7028 31.2594C86.3827 31.0795 86.1343 30.799 85.9577 30.418ZM86.6223 30.1101C86.7763 30.4423 87.0489 30.6416 87.4402 30.7079C87.8359 30.7721 88.3151 30.6738 88.8777 30.4131C89.4404 30.1523 89.8229 29.8513 90.0253 29.51C90.2321 29.1666 90.2586 28.8287 90.1046 28.4964C89.9486 28.1597 89.6727 27.9593 89.277 27.8951C88.8878 27.8333 88.4119 27.9327 87.8492 28.1934C87.2865 28.4542 86.9008 28.754 86.6919 29.093C86.4895 29.4343 86.4663 29.7733 86.6223 30.1101Z" fill="white"/>
<path d="M88.8511 38.6048L93.1797 37.6567L92.8851 36.3116L93.5648 36.1627L94.3201 39.6113L93.6404 39.7602L93.3458 38.4151L89.0172 39.3632L88.8511 38.6048Z" fill="white"/>
<path d="M89.4828 41.7979L94.5802 41.2463L94.7606 42.9139C94.8037 43.312 94.7712 43.647 94.6631 43.919C94.5555 44.1959 94.3921 44.41 94.1727 44.5614C93.9587 44.7172 93.7061 44.8108 93.4148 44.8424C93.0847 44.8781 92.7818 44.8249 92.5061 44.6829C92.2358 44.5451 92.0238 44.3102 91.87 43.9781L89.8595 45.2787L89.7626 44.383L91.6741 43.189L91.5835 42.3515L89.5664 42.5698L89.4828 41.7979ZM92.2825 42.2759L92.3747 43.1279C92.4125 43.4774 92.5178 43.7239 92.6905 43.8673C92.8637 44.0155 93.0765 44.076 93.3289 44.0486C93.5862 44.0208 93.7815 43.9186 93.9146 43.7421C94.0526 43.5651 94.1022 43.297 94.0633 42.9378L93.9719 42.0931L92.2825 42.2759Z" fill="white"/>
<path d="M89.9062 46.4016L95.0333 46.4032L95.0322 49.6772L94.3364 49.677L94.3372 47.1794L92.843 47.1789L92.8423 49.4568L92.1538 49.4566L92.1545 47.1787L90.6018 47.1782L90.601 49.6759L89.9052 49.6756L89.9062 46.4016Z" fill="white"/>
<path d="M89.8548 50.7752L94.9518 51.33L94.8693 52.0872L90.9018 53.8141L94.6371 54.2207L94.5571 54.9561L89.4601 54.4014L89.5425 53.6441L93.5101 51.9172L89.7747 51.5106L89.8548 50.7752Z" fill="white"/>
<path d="M89.3105 55.3021L94.3182 56.4022L94.0542 57.6041C93.8771 58.4101 93.5215 58.9593 92.9872 59.2519C92.4578 59.5456 91.8044 59.607 91.027 59.4362C90.2496 59.2654 89.6797 58.9353 89.3173 58.4457C88.9597 57.9572 88.8694 57.3099 89.0465 56.5039L89.3105 55.3021ZM89.845 56.2144L89.7539 56.6293C89.626 57.2112 89.696 57.6665 89.9637 57.9953C90.2362 58.3251 90.6467 58.5503 91.1952 58.6707C91.7436 58.7912 92.2083 58.7583 92.5892 58.572C92.9748 58.3868 93.2316 58.0033 93.3594 57.4214L93.4505 57.0065L89.845 56.2144Z" fill="white"/>
<path d="M87.6082 61.4539C87.7239 61.1116 87.8879 60.832 88.1004 60.6151C88.3112 60.4029 88.5573 60.2618 88.8386 60.1919C89.1184 60.1267 89.4186 60.1457 89.7394 60.2489L89.4768 61.026C89.2301 60.9478 88.9915 60.96 88.761 61.0625C88.5335 61.1712 88.3698 61.3736 88.2698 61.6697C88.1776 61.9426 88.1682 62.1765 88.2415 62.3714C88.3194 62.5678 88.4602 62.7004 88.6637 62.7692C88.8349 62.827 88.9916 62.8284 89.1339 62.7734C89.2793 62.7246 89.4279 62.6202 89.5799 62.4602C89.7365 62.3018 89.9142 62.0886 90.1129 61.8208C90.3784 61.462 90.6565 61.2261 90.9473 61.1131C91.2426 61.0015 91.5569 61.002 91.8899 61.1145C92.2739 61.2443 92.537 61.4878 92.6791 61.845C92.8213 62.2023 92.8103 62.6238 92.6462 63.1095C92.4868 63.5814 92.2361 63.9193 91.894 64.1233C91.5565 64.3288 91.1711 64.3636 90.7378 64.2275L91.0027 63.4434C91.1183 63.4824 91.2403 63.4876 91.3686 63.4587C91.5015 63.4315 91.623 63.3694 91.733 63.2726C91.8476 63.1773 91.9346 63.0418 91.994 62.866C92.0721 62.6502 92.0806 62.4494 92.0196 62.2639C91.9632 62.0799 91.8425 61.9567 91.6575 61.8942C91.4308 61.8176 91.2222 61.8476 91.0318 61.9843C90.8459 62.1225 90.6171 62.3725 90.3454 62.7343C90.1762 62.9606 89.9986 63.1506 89.8127 63.3042C89.6299 63.4641 89.4272 63.5682 89.2046 63.6168C88.9851 63.6715 88.7343 63.6511 88.4521 63.5558C88.193 63.4683 87.979 63.3238 87.81 63.1224C87.6455 62.9225 87.5423 62.6789 87.5002 62.3916C87.4566 62.1088 87.4926 61.7963 87.6082 61.4539Z" fill="white"/>
<path d="M84.7247 68.2745L89.1137 70.9247L87.4213 73.7274L86.8257 73.3677L88.1167 71.2296L86.8376 70.4573L85.6602 72.4073L85.0708 72.0514L86.2482 70.1014L84.919 69.2988L83.628 71.4369L83.0323 71.0772L84.7247 68.2745Z" fill="white"/>
<path d="M82.534 71.8394L83.6449 74.6108L86.6206 74.9357L86.0745 75.6522L83.9361 75.4129L84.7514 77.3881L84.2231 78.0813L83.1296 75.3232L80.1365 74.9851L80.6737 74.2802L82.8384 74.5211L81.9968 72.5443L82.534 71.8394Z" fill="white"/>
<path d="M79.5508 75.6476L83.2707 79.176L82.0761 80.4354C81.8073 80.7189 81.5359 80.9056 81.262 80.9958C80.9916 81.0893 80.7294 81.0997 80.4753 81.0269C80.2213 80.9542 79.9844 80.8137 79.7648 80.6053C79.5451 80.397 79.3923 80.1679 79.3062 79.918C79.2202 79.6682 79.2149 79.4041 79.2905 79.1258C79.3695 78.8508 79.5435 78.5716 79.8123 78.2882L80.4726 77.592L79.0165 76.2109L79.5508 75.6476ZM80.9775 78.0709L80.3424 78.7405C80.1139 78.9814 80.0042 79.2105 80.0134 79.4279C80.0193 79.6488 80.1178 79.8499 80.3091 80.0314C80.4969 80.2095 80.7012 80.2956 80.9221 80.2898C81.1432 80.2909 81.368 80.1709 81.5965 79.93L82.2316 79.2604L80.9775 78.0709Z" fill="white"/>
<path d="M76.3235 78.9461L79.643 82.8535L79.0513 83.3562L76.1823 79.9791L74.2565 81.6151L73.806 81.0848L76.3235 78.9461Z" fill="white"/>
<path d="M71.4335 82.6644C71.7769 82.4314 72.1342 82.3187 72.5054 82.3265C72.8765 82.3343 73.2398 82.4566 73.5952 82.6934C73.9507 82.9302 74.2819 83.2749 74.589 83.7274C74.8961 84.1799 75.094 84.6151 75.1828 85.0328C75.2715 85.4506 75.251 85.8333 75.1211 86.1811C74.9912 86.5289 74.7546 86.8193 74.4112 87.0524C74.0637 87.2882 73.7064 87.4008 73.3393 87.3903C72.9681 87.3825 72.6048 87.2602 72.2494 87.0234C71.894 86.7866 71.5627 86.4419 71.2556 85.9894C70.9486 85.5369 70.7506 85.1017 70.6619 84.684C70.5731 84.2662 70.5937 83.8835 70.7235 83.5357C70.8494 83.1907 71.086 82.9002 71.4335 82.6644ZM71.8448 83.2705C71.5417 83.4761 71.3891 83.7774 71.387 84.1742C71.3876 84.5751 71.562 85.0321 71.9102 85.5452C72.2584 86.0584 72.6173 86.3872 72.9869 86.5318C73.3592 86.6804 73.6968 86.6519 73.9999 86.4463C74.3069 86.2379 74.4602 85.9333 74.4596 85.5324C74.4577 85.1383 74.2827 84.6847 73.9345 84.1716C73.5862 83.6584 73.228 83.3262 72.8597 83.1748C72.4902 83.0302 72.1518 83.0621 71.8448 83.2705Z" fill="white"/>
<path d="M69.0561 84.303L71.4604 88.8313L69.979 89.6179C69.6254 89.8057 69.3022 89.8999 69.0095 89.9005C68.7125 89.9034 68.453 89.8311 68.231 89.6836C68.0069 89.5427 67.8262 89.3429 67.6888 89.0842C67.5331 88.7909 67.47 88.4899 67.4996 88.1812C67.5271 87.8791 67.6665 87.595 67.9178 87.3289L65.9639 85.9448L66.7596 85.5223L68.5779 86.854L69.3218 86.459L68.3704 84.6671L69.0561 84.303ZM69.6515 87.08L68.8947 87.4819C68.5841 87.6468 68.3944 87.836 68.3253 88.0496C68.252 88.2654 68.2748 88.4855 68.3939 88.7098C68.5153 88.9383 68.6826 89.0817 68.8959 89.1398C69.1115 89.2023 69.3789 89.1488 69.698 88.9793L70.4484 88.5809L69.6515 87.08Z" fill="white"/>
<path d="M64.9704 86.3904L66.8679 91.1534L63.8264 92.3652L63.5689 91.7187L65.8892 90.7944L65.3361 89.4063L63.22 90.2494L62.9652 89.6097L65.0813 88.7667L64.5066 87.3242L62.1864 88.2486L61.9289 87.6022L64.9704 86.3904Z" fill="white"/>
<path d="M54.9926 90.9451C55.1758 90.9153 55.3491 90.9316 55.5126 90.9941C55.6769 91.0613 55.817 91.1622 55.9329 91.2967C56.044 91.432 56.1144 91.5912 56.1442 91.7744C56.174 91.9575 56.1577 92.1308 56.0952 92.2944C56.028 92.4587 55.9267 92.5963 55.7914 92.7074C55.6569 92.8233 55.4981 92.8961 55.3149 92.9259C55.1318 92.9557 54.9581 92.937 54.7938 92.8698C54.6303 92.8073 54.493 92.7084 54.3819 92.5732C54.266 92.4387 54.1932 92.2798 54.1634 92.0967C54.1336 91.9135 54.1523 91.7398 54.2196 91.5755C54.282 91.412 54.3805 91.2723 54.515 91.1564C54.6503 91.0453 54.8095 90.9749 54.9926 90.9451Z" fill="white"/>
<path d="M45.5629 89.7966C46.0895 89.8254 46.4861 89.9939 46.7529 90.3019C47.0194 90.6148 47.1385 91.0297 47.1102 91.5465L46.3276 91.5036C46.3374 91.2352 46.2816 91.0047 46.1601 90.8123C46.0386 90.6198 45.8292 90.5154 45.5318 90.4991C45.2441 90.4833 45.0344 90.5623 44.9026 90.736C44.766 90.9095 44.6903 91.1303 44.6756 91.3985L44.4805 94.9601L43.7053 94.9176L43.9004 91.356C43.9292 90.8294 44.0905 90.4299 44.3841 90.1575C44.6775 89.8899 45.0705 89.7696 45.5629 89.7966Z" fill="white"/>
<path d="M41.1297 89.3099C41.5393 89.377 41.8761 89.5411 42.1401 89.8021C42.4041 90.0631 42.5836 90.4018 42.6786 90.8182C42.7736 91.2346 42.7768 91.7126 42.6883 92.2523C42.5998 92.792 42.444 93.2439 42.221 93.6082C41.998 93.9724 41.7197 94.236 41.3862 94.399C41.0527 94.562 40.6811 94.61 40.2716 94.5428C39.8572 94.4748 39.5204 94.3108 39.2612 94.0505C38.9972 93.7895 38.8178 93.4508 38.7227 93.0345C38.6277 92.6181 38.6245 92.14 38.713 91.6004C38.8015 91.0607 38.9573 90.6087 39.1803 90.2445C39.4033 89.8803 39.6816 89.6167 40.0151 89.4536C40.3438 89.2898 40.7153 89.2419 41.1297 89.3099ZM41.0112 90.0326C40.6498 89.9734 40.3318 90.087 40.0572 90.3735C39.7818 90.6648 39.594 91.1164 39.4936 91.7284C39.3932 92.3403 39.4274 92.8259 39.5961 93.1851C39.764 93.5491 40.0287 93.7608 40.3901 93.82C40.7563 93.8801 41.0771 93.7645 41.3525 93.4731C41.6223 93.1859 41.8073 92.7362 41.9077 92.1243C42.0081 91.5123 41.9767 91.0247 41.8136 90.6615C41.6449 90.3023 41.3774 90.0927 41.0112 90.0326Z" fill="white"/>
<path d="M38.1257 88.8216L37.941 89.4849L36.8685 89.1863L35.8628 92.799L36.9212 93.0937L36.7366 93.7569L33.8718 92.9594L34.0564 92.2962L35.1148 92.5908L36.1206 88.9781L35.048 88.6795L35.2327 88.0163L38.1257 88.8216Z" fill="white"/>
<path d="M34.0803 87.6452L32.1768 92.4058L31.4695 92.123L30.8719 87.8374L29.4769 91.3262L28.79 91.0516L30.6935 86.291L31.4008 86.5738L31.9984 90.8594L33.3934 87.3705L34.0803 87.6452Z" fill="white"/>
<path d="M24.4196 82.6269C24.7749 82.8687 25.0158 83.1655 25.1425 83.5175C25.2652 83.8667 25.2818 84.2501 25.1926 84.6678C25.0965 85.0867 24.9001 85.5142 24.6035 85.9502C24.3041 86.3902 23.9785 86.7298 23.6268 86.9689C23.2684 87.2093 22.9022 87.3351 22.5283 87.3465C22.1516 87.3619 21.7877 87.2501 21.4365 87.0111C20.9803 86.7007 20.7021 86.3284 20.6019 85.894C20.499 85.4637 20.5696 85.0215 20.8136 84.5674L21.5221 85.0495C21.4073 85.2963 21.3732 85.5417 21.4196 85.786C21.4593 86.0315 21.6043 86.2394 21.8546 86.4097C22.1735 86.6267 22.5179 86.6543 22.8878 86.4926C23.2577 86.3309 23.6116 86.0017 23.9495 85.5052C24.2846 85.0127 24.4595 84.5647 24.4741 84.1612C24.4861 83.7618 24.3325 83.4536 24.0136 83.2366C23.7553 83.0608 23.5121 82.9928 23.2842 83.0326C23.0536 83.0765 22.8425 83.1957 22.6511 83.3903L21.9426 82.9082C22.2901 82.5363 22.6775 82.3186 23.1047 82.2549C23.5291 82.1953 23.9675 82.3193 24.4196 82.6269Z" fill="white"/>
<path d="M22.0222 81.0204L18.6978 84.9237L17.4209 83.8362C17.1161 83.5766 16.9095 83.3108 16.8011 83.0389C16.689 82.7639 16.6606 82.496 16.716 82.2352C16.7644 81.975 16.8836 81.7334 17.0735 81.5103C17.2888 81.2576 17.5454 81.0881 17.8433 81.0018C18.1344 80.9162 18.4498 80.9411 18.7898 81.0767L19.3568 78.7504L20.0427 79.3345L19.4744 81.5155L20.1156 82.0616L21.4311 80.517L22.0222 81.0204ZM19.6597 82.5969L19.0073 82.0413C18.7397 81.8133 18.4938 81.7066 18.2699 81.7211C18.0421 81.7324 17.846 81.8347 17.6813 82.028C17.5135 82.225 17.4419 82.4334 17.4664 82.6531C17.4878 82.8765 17.636 83.1054 17.9111 83.3397L18.5579 83.8906L19.6597 82.5969Z" fill="white"/>
<path d="M17.7423 77.1094L16.3271 78.4484L15.1809 81.8621L14.5718 81.2183L15.4644 78.7302L12.9307 79.4839L12.3216 78.8401L15.7935 77.8844L17.2087 76.5454L17.7423 77.1094Z" fill="white"/>
<path d="M14.7718 73.6746L11.2441 76.3563L12.0774 77.4525L11.5235 77.8736L9.38699 75.0631L9.94092 74.642L10.7742 75.7382L14.3019 73.0565L14.7718 73.6746Z" fill="white"/>
<path d="M12.8546 71.0465L8.46225 73.6912L7.56683 72.2041C7.36532 71.8695 7.25765 71.5581 7.2438 71.2701C7.22577 70.9846 7.28567 70.729 7.42349 70.5036C7.56131 70.2781 7.7599 70.0873 8.01925 69.9311C8.27861 69.7749 8.54017 69.6887 8.80393 69.6724C9.06769 69.6561 9.32362 69.7214 9.57172 69.8684C9.81565 70.0179 10.0384 70.26 10.2399 70.5946L10.7348 71.4166L12.4541 70.3814L12.8546 71.0465ZM10.1387 71.7756L9.66265 70.9849C9.49137 70.7005 9.29976 70.5337 9.08782 70.4846C8.87336 70.4314 8.65318 70.4728 8.42729 70.6088C8.20559 70.7423 8.0681 70.9162 8.01484 71.1307C7.95488 71.3435 8.01054 71.5921 8.18182 71.8766L8.65786 72.6672L10.1387 71.7756Z" fill="white"/>
<path d="M9.93904 65.5577C10.1133 65.9344 10.1665 66.3052 10.0986 66.6702C10.0307 67.0351 9.85112 67.3738 9.55981 67.6861C9.2685 67.9984 8.87467 68.2694 8.37832 68.499C7.88197 68.7286 7.42049 68.8533 6.99387 68.8731C6.56724 68.8929 6.19288 68.8106 5.87078 68.626C5.54868 68.4415 5.30049 68.1608 5.12623 67.7841C4.94992 67.403 4.89673 67.0322 4.96667 66.6716C5.03455 66.3067 5.21415 65.968 5.50546 65.6557C5.79677 65.3434 6.1906 65.0725 6.68695 64.8428C7.1833 64.6132 7.64479 64.4885 8.07141 64.4687C8.49803 64.4489 8.87239 64.5312 9.1945 64.7158C9.51455 64.8959 9.76273 65.1766 9.93904 65.5577ZM9.27429 65.8652C9.12053 65.5328 8.84803 65.3334 8.45681 65.2669C8.06114 65.2024 7.5819 65.3004 7.01908 65.5608C6.45625 65.8211 6.07353 66.1219 5.87092 66.4631C5.66387 66.8064 5.63722 67.1442 5.79098 67.4766C5.94679 67.8134 6.22253 68.0141 6.61819 68.0785C7.00737 68.1406 7.48337 68.0414 8.0462 67.781C8.60902 67.5207 8.99498 67.2211 9.20408 66.8822C9.4067 66.541 9.4301 66.202 9.27429 65.8652Z" fill="white"/>
<path d="M7.05064 57.369L2.7214 58.3143L3.01515 59.6596L2.33535 59.808L1.58221 56.3589L2.26201 56.2105L2.55577 57.5558L6.88501 56.6104L7.05064 57.369Z" fill="white"/>
<path d="M6.4211 54.176L1.32344 54.7244L1.14403 53.0567C1.1012 52.6586 1.13392 52.3236 1.24217 52.0517C1.34991 51.7749 1.5135 51.5609 1.73296 51.4096C1.94703 51.2539 2.19972 51.1604 2.49102 51.1291C2.82115 51.0936 3.12401 51.1469 3.3996 51.2892C3.66982 51.4271 3.88172 51.6621 4.03532 51.9943L6.04661 50.695L6.14297 51.5907L4.23074 52.7836L4.32084 53.6211L6.33805 53.4041L6.4211 54.176ZM3.62173 53.6963L3.53007 52.8442C3.49246 52.4947 3.38736 52.2482 3.21477 52.1047C3.04165 51.9563 2.82887 51.8957 2.57641 51.9229C2.3191 51.9506 2.12381 52.0526 1.99055 52.229C1.85243 52.4059 1.80269 52.674 1.84134 53.0333L1.93222 53.878L3.62173 53.6963Z" fill="white"/>
<path d="M6.00055 49.5715L0.873479 49.5667L0.876549 46.2927L1.57237 46.2933L1.57002 48.791L3.0642 48.7924L3.06633 46.5145L3.75483 46.5151L3.75269 48.793L5.30546 48.7945L5.3078 46.2968L6.00362 46.2975L6.00055 49.5715Z" fill="white"/>
<path d="M6.05458 45.1983L0.957956 44.6404L1.04085 43.8832L5.00948 42.1588L1.27439 41.7499L1.35489 41.0145L6.45151 41.5724L6.36862 42.3297L2.39999 44.0541L6.13508 44.463L6.05458 45.1983Z" fill="white"/>
<path d="M6.60173 40.6715L1.59479 39.5682L1.85958 38.3665C2.03717 37.5606 2.39316 37.0116 2.92756 36.7193C3.4572 36.426 4.11065 36.365 4.88792 36.5363C5.66519 36.7076 6.23487 37.0381 6.59694 37.5279C6.95425 38.0166 7.04411 38.664 6.86653 39.4698L6.60173 40.6715ZM6.06784 39.7588L6.15925 39.344C6.28745 38.7622 6.21779 38.3069 5.95027 37.9779C5.67799 37.6479 5.26765 37.4225 4.71927 37.3016C4.17089 37.1808 3.7062 37.2134 3.3252 37.3995C2.93943 37.5845 2.68245 37.9678 2.55425 38.5496L2.46283 38.9645L6.06784 39.7588Z" fill="white"/>
<path d="M8.30788 34.5208C8.19202 34.8631 8.02781 35.1425 7.81525 35.3593C7.60425 35.5714 7.35808 35.7123 7.07672 35.782C6.79693 35.8471 6.49668 35.8279 6.17599 35.7245L6.43903 34.9475C6.68573 35.0259 6.92435 35.0139 7.15491 34.9115C7.3824 34.8029 7.54625 34.6006 7.64646 34.3046C7.73884 34.0317 7.74843 33.7978 7.67522 33.6029C7.59739 33.4065 7.45672 33.2738 7.25321 33.2049C7.08209 33.147 6.92536 33.1455 6.78305 33.2004C6.63767 33.2491 6.48895 33.3534 6.33687 33.5133C6.18018 33.6716 6.00238 33.8846 5.80348 34.1524C5.53776 34.5109 5.25948 34.7467 4.96866 34.8596C4.67321 34.9709 4.35898 34.9702 4.02597 34.8575C3.64209 34.7275 3.37918 34.4839 3.23725 34.1265C3.09532 33.7692 3.10655 33.3477 3.27095 32.862C3.43066 32.3903 3.68162 32.0525 4.02382 31.8487C4.3614 31.6434 4.74682 31.6089 5.18009 31.7453L4.91469 32.5292C4.79907 32.4901 4.6771 32.4849 4.54881 32.5136C4.41588 32.5408 4.29438 32.6028 4.18429 32.6995C4.06958 32.7947 3.98248 32.9302 3.92298 33.106C3.84477 33.3218 3.83611 33.5225 3.89701 33.708C3.95328 33.8921 4.07392 34.0154 4.25892 34.078C4.48555 34.1547 4.69415 34.1248 4.88471 33.9883C5.07065 33.8502 5.29958 33.6003 5.57149 33.2387C5.74086 33.0125 5.91855 32.8227 6.10457 32.6691C6.28752 32.5094 6.49029 32.4053 6.71287 32.357C6.93239 32.3024 7.18322 32.3229 7.46535 32.4184C7.72435 32.5061 7.93831 32.6507 8.10722 32.8522C8.27151 33.0522 8.3746 33.2958 8.41649 33.5832C8.45995 33.866 8.42375 34.1785 8.30788 34.5208Z" fill="white"/>
<path d="M11.1956 27.7021L6.80823 25.0492L8.50231 22.2475L9.09774 22.6076L7.80539 24.7448L9.08399 25.518L10.2626 23.5687L10.8518 23.925L9.67315 25.8742L11.0019 26.6777L12.2942 24.5404L12.8897 24.9005L11.1956 27.7021Z" fill="white"/>
<path d="M13.3887 24.1381L12.2795 21.366L9.304 21.0393L9.85055 20.3232L11.9888 20.5637L11.1747 18.588L11.7035 17.8952L12.7952 20.654L15.7882 20.994L15.2505 21.6985L13.0859 21.4562L13.9263 23.4336L13.3887 24.1381Z" fill="white"/>
<path d="M16.3741 20.3319L12.6564 16.8012L13.8517 15.5425C14.1207 15.2593 14.3922 15.0727 14.6662 14.9827C14.9367 14.8894 15.1989 14.8792 15.4529 14.952C15.7069 15.0249 15.9437 15.1656 16.1632 15.3741C16.3828 15.5826 16.5355 15.8118 16.6213 16.0617C16.7072 16.3116 16.7123 16.5757 16.6366 16.8539C16.5574 17.1288 16.3832 17.4079 16.1142 17.6912L15.4535 18.3869L16.9087 19.7689L16.3741 20.3319ZM14.949 17.9078L15.5845 17.2386C15.8131 16.9978 15.9229 16.7687 15.9139 16.5514C15.9081 16.3305 15.8097 16.1292 15.6185 15.9477C15.4308 15.7695 15.2266 15.6832 15.0057 15.6889C14.7846 15.6877 14.5597 15.8075 14.3311 16.0482L13.6956 16.7174L14.949 17.9078Z" fill="white"/>
<path d="M19.6038 17.0358L16.2868 13.1263L16.8788 12.624L19.7457 16.0029L21.6725 14.3681L22.1227 14.8986L19.6038 17.0358Z" fill="white"/>
<path d="M24.4962 13.3206C24.1527 13.5534 23.7953 13.6658 23.4242 13.6578C23.053 13.6498 22.6898 13.5273 22.3345 13.2903C21.9792 13.0533 21.6482 12.7084 21.3414 12.2557C21.0346 11.8029 20.837 11.3677 20.7485 10.9499C20.66 10.532 20.6808 10.1493 20.8108 9.8016C20.9409 9.45391 21.1778 9.16364 21.5213 8.9308C21.869 8.69521 22.2263 8.5828 22.5934 8.59356C22.9646 8.60157 23.3278 8.72409 23.6831 8.96111C24.0383 9.19813 24.3694 9.54299 24.6762 9.99572C24.983 10.4484 25.1806 10.8837 25.2691 11.3015C25.3576 11.7193 25.3368 12.1021 25.2067 12.4498C25.0807 12.7947 24.8439 13.085 24.4962 13.3206ZM24.0853 12.7143C24.3885 12.5088 24.5413 12.2077 24.5437 11.8108C24.5434 11.41 24.3692 10.9528 24.0214 10.4395C23.6735 9.92613 23.3148 9.59705 22.9453 9.45223C22.5731 9.30337 22.2354 9.33167 21.9322 9.53712C21.625 9.74531 21.4716 10.0498 21.4719 10.4507C21.4736 10.8448 21.6483 11.2985 21.9962 11.8119C22.3441 12.3252 22.7022 12.6577 23.0703 12.8093C23.4398 12.9541 23.7781 12.9224 24.0853 12.7143Z" fill="white"/>
<path d="M26.8747 11.6829L24.4732 7.15309L25.9551 6.36745C26.3089 6.17991 26.6321 6.08592 26.9248 6.0855C27.2218 6.08279 27.4813 6.15524 27.7032 6.30286C27.9272 6.44387 28.1078 6.6438 28.245 6.90265C28.4006 7.19601 28.4634 7.49704 28.4337 7.80574C28.4059 8.10784 28.2663 8.39185 28.0149 8.65778L29.968 10.0431L29.172 10.465L27.3545 9.13223L26.6103 9.52676L27.5607 11.3193L26.8747 11.6829ZM26.281 8.90552L27.0381 8.50413C27.3487 8.33946 27.5386 8.15035 27.6078 7.93682C27.6813 7.72101 27.6586 7.50093 27.5397 7.2766C27.4184 7.04795 27.2512 6.90449 27.0379 6.84623C26.8224 6.78365 26.555 6.83699 26.2357 7.00624L25.4851 7.4042L26.281 8.90552Z" fill="white"/>
<path d="M30.9613 9.59858L29.0668 4.8344L32.109 3.62457L32.3661 4.27114L30.0453 5.19407L30.5974 6.58249L32.7141 5.74075L32.9685 6.38051L30.8519 7.22225L31.4256 8.66511L33.7465 7.74218L34.0036 8.38875L30.9613 9.59858Z" fill="white"/>
<path d="M40.9421 5.04989C40.759 5.07958 40.5857 5.06315 40.4222 5.00061C40.2579 4.93325 40.1179 4.83228 40.0021 4.69771C39.8911 4.56235 39.8208 4.40309 39.7911 4.21993C39.7614 4.03677 39.7778 3.86345 39.8403 3.69996C39.9077 3.5357 40.0091 3.39808 40.1444 3.2871C40.279 3.1713 40.4379 3.09855 40.621 3.06886C40.8042 3.03918 40.9779 3.05801 41.1422 3.12537C41.3057 3.18792 41.4429 3.28686 41.5539 3.42222C41.6697 3.5568 41.7424 3.71567 41.7721 3.89883C41.8018 4.08199 41.7829 4.2557 41.7156 4.41997C41.653 4.58345 41.5545 4.72309 41.4199 4.83889C41.2846 4.94987 41.1253 5.0202 40.9421 5.04989Z" fill="white"/>
</svg>
