<svg width="118" height="119" viewBox="0 0 118 119" fill="none" xmlns="http://www.w3.org/2000/svg">
<path opacity="0.35" d="M90.1196 56.6426C90.6508 50.3042 89.2589 43.9527 86.13 38.4376C83.0012 32.9225 78.2847 28.507 72.6115 25.7818C66.9383 23.0565 60.5789 22.1515 54.3842 23.1878C48.1895 24.2241 42.4549 27.1523 37.9475 31.5806C33.4401 36.0089 30.3749 41.7262 29.162 47.9675C27.9492 54.2089 28.6464 60.6767 31.1605 66.5057C33.6745 72.3346 37.8856 77.2468 43.2302 80.5849C48.5748 83.923 54.7981 85.528 61.0676 85.1851L60.8821 81.7049C55.3123 82.0095 49.7835 80.5837 45.0354 77.6181C40.2872 74.6525 36.5461 70.2885 34.3126 65.1101C32.0791 59.9317 31.4597 54.1857 32.5372 48.6408C33.6148 43.096 36.3379 38.0168 40.3422 34.0826C44.3466 30.1485 49.4413 27.5471 54.9446 26.6265C60.448 25.7059 66.0977 26.5099 71.1377 28.931C76.1778 31.3521 80.3679 35.2748 83.1476 40.1744C85.9272 45.074 87.1638 50.7167 86.6919 56.3478L90.1196 56.6426Z" fill="#C4C4C4"/>
<g filter="url(#filter0_d_1_43)">
<path d="M94.2858 54C94.2858 61.188 92.0905 68.2046 87.9938 74.1108C83.897 80.0171 78.0942 84.5314 71.3617 87.0496C64.6292 89.5677 57.2883 89.9697 50.3211 88.2018C43.3539 86.4338 37.0928 82.5802 32.3756 77.1566C27.6584 71.733 24.7101 64.9981 23.9252 57.8531C23.1403 50.7081 24.5563 43.4937 27.9836 37.1754C31.4109 30.8571 36.6861 25.7362 43.1033 22.4979C49.5205 19.2596 56.7737 18.0584 63.8923 19.055L62.2861 30.5277C57.5046 29.8583 52.6327 30.6651 48.3223 32.8402C44.0119 35.0154 40.4685 38.4551 38.1664 42.699C35.8643 46.943 34.9133 51.7888 35.4405 56.5881C35.9677 61.3874 37.9481 65.9111 41.1166 69.5542C44.2851 73.1972 48.4906 75.7856 53.1704 76.9731C57.8502 78.1607 62.7811 77.8906 67.3033 76.1992C71.8255 74.5077 75.7232 71.4755 78.4749 67.5083C81.2267 63.5411 82.7012 58.8281 82.7012 54H94.2858Z" fill="#99E39E"/>
</g>
<defs>
<filter id="filter0_d_1_43" x="0.190395" y="0.868534" width="117.619" height="117.619" filterUnits="userSpaceOnUse" color-interpolation-filters="sRGB">
<feFlood flood-opacity="0" result="BackgroundImageFix"/>
<feColorMatrix in="SourceAlpha" type="matrix" values="0 0 0 0 0 0 0 0 0 0 0 0 0 0 0 0 0 0 127 0" result="hardAlpha"/>
<feOffset dy="5.67817"/>
<feGaussianBlur stdDeviation="11.7619"/>
<feColorMatrix type="matrix" values="0 0 0 0 0.6 0 0 0 0 0.890196 0 0 0 0 0.619608 0 0 0 0.2 0"/>
<feBlend mode="normal" in2="BackgroundImageFix" result="effect1_dropShadow_1_43"/>
<feBlend mode="normal" in="SourceGraphic" in2="effect1_dropShadow_1_43" result="shape"/>
</filter>
</defs>
</svg>
